<?xml version="1.0" encoding="UTF-8"?>
<svg xmlns="http://www.w3.org/2000/svg" xmlns:xlink="http://www.w3.org/1999/xlink" width="32px" height="32px" viewBox="0 0 32 31" version="1.1">
<g id="surface1">
<path style=" stroke:none;fill-rule:nonzero;fill:rgb(0%,21.960784%,38.039216%);fill-opacity:1;" d="M 31.886719 15.5 C 31.886719 6.941406 24.75 0 15.945312 0 C 7.144531 0 0.0078125 6.941406 0.0078125 15.5 C 0.0078125 24.058594 7.144531 31 15.945312 31 C 24.75 31 31.886719 24.058594 31.886719 15.5 Z M 31.886719 15.5 "/>
<path style=" stroke:none;fill-rule:nonzero;fill:rgb(50.980395%,68.627453%,100%);fill-opacity:1;" d="M 13.808594 11.699219 C 13.796875 11.625 13.792969 11.546875 13.792969 11.464844 C 13.792969 10.929688 13.957031 10.519531 14.289062 10.234375 C 14.621094 9.949219 15.054688 9.804688 15.59375 9.804688 C 16.222656 9.804688 16.738281 9.972656 17.140625 10.3125 C 17.539062 10.648438 17.757812 11.113281 17.792969 11.699219 L 22.628906 11.699219 C 22.542969 9.988281 21.878906 8.652344 20.644531 7.691406 C 19.40625 6.730469 17.773438 6.25 15.753906 6.25 C 13.765625 6.25 12.152344 6.730469 10.914062 7.691406 C 9.675781 8.652344 9.058594 9.980469 9.058594 11.675781 C 9.058594 11.683594 9.058594 11.691406 9.058594 11.699219 Z M 13.808594 11.699219 "/>
<path style=" stroke:none;fill-rule:nonzero;fill:rgb(50.980395%,68.627453%,100%);fill-opacity:1;" d="M 18.140625 19.148438 C 18.167969 19.265625 18.183594 19.382812 18.183594 19.511719 C 18.183594 20.042969 17.988281 20.460938 17.605469 20.761719 C 17.21875 21.0625 16.691406 21.214844 16.027344 21.214844 C 15.378906 21.214844 14.851562 21.039062 14.449219 20.683594 C 14.046875 20.332031 13.808594 19.820312 13.738281 19.148438 L 8.957031 19.148438 C 8.988281 20.335938 9.328125 21.351562 9.96875 22.195312 C 10.605469 23.039062 11.460938 23.675781 12.53125 24.105469 C 13.597656 24.535156 14.808594 24.75 16.15625 24.75 C 17.542969 24.75 18.742188 24.5 19.757812 24 C 20.777344 23.503906 21.550781 22.832031 22.085938 21.988281 C 22.621094 21.144531 22.886719 20.207031 22.886719 19.175781 C 22.886719 19.167969 22.886719 19.160156 22.886719 19.148438 Z M 18.140625 19.148438 "/>
<path style=" stroke:none;fill-rule:nonzero;fill:rgb(50.980395%,68.627453%,100%);fill-opacity:1;" d="M 15.175781 4.5 L 16.820312 4.5 L 16.820312 9.800781 L 15.175781 9.800781 Z M 15.175781 4.5 "/>
<path style=" stroke:none;fill-rule:nonzero;fill:rgb(50.980395%,68.627453%,100%);fill-opacity:1;" d="M 15.175781 21.25 L 16.820312 21.25 L 16.820312 26.5 L 15.175781 26.5 Z M 15.175781 21.25 "/>
<path style=" stroke:none;fill-rule:nonzero;fill:rgb(100%,100%,100%);fill-opacity:1;" d="M 20.152344 14.988281 C 19.40625 14.632812 18.441406 14.261719 17.257812 13.871094 C 16.066406 13.496094 15.195312 13.152344 14.636719 12.828125 C 14.152344 12.546875 13.875 12.171875 13.8125 11.699219 L 9.058594 11.699219 C 9.058594 12.8125 9.332031 13.714844 9.871094 14.40625 C 10.410156 15.101562 11.054688 15.625 11.808594 15.980469 C 12.558594 16.335938 13.527344 16.691406 14.714844 17.050781 C 15.535156 17.285156 16.167969 17.5 16.613281 17.683594 C 17.058594 17.871094 17.433594 18.109375 17.742188 18.398438 C 17.964844 18.605469 18.101562 18.859375 18.164062 19.148438 L 22.886719 19.148438 C 22.886719 18.085938 22.617188 17.214844 22.074219 16.539062 C 21.535156 15.863281 20.894531 15.34375 20.152344 14.988281 Z M 20.152344 14.988281 "/>
</g>
</svg>
